<svg viewBox="0 0 200 200" width={{ width }} height={{ height }} xmlns="http://www.w3.org/2000/svg">
	<path fill="currentColor" d="M32.3,-54.8C46.5,-47.7,66,-48.5,66.8,-40.7C67.7,-32.9,49.9,-16.4,49.7,-0.1C49.4,16.1,66.6,32.3,65.9,40.2C65.1,48.2,46.3,47.9,32.3,55.5C18.3,63.1,9.2,78.5,0.9,76.9C-7.3,75.3,-14.6,56.7,-21.2,44.8C-27.8,33,-33.6,27.9,-38.3,21.5C-42.9,15.2,-46.4,7.6,-44.2,1.3C-42,-5,-34.1,-10.1,-32,-20.8C-29.9,-31.6,-33.6,-48.1,-29.2,-60.9C-24.9,-73.7,-12.4,-82.8,-1.7,-79.9C9,-77,18.1,-62,32.3,-54.8Z" transform="translate(100 100)" />
</svg>
