<svg viewBox="0 0 200 200" width={{ width }} height={{ height }} xmlns="http://www.w3.org/2000/svg">
	<path fill="#E7F4FF" d="M40.6,-67.6C49.9,-65,52.7,-48.5,58.9,-34.9C65.1,-21.4,74.8,-10.7,74,-0.5C73.2,9.7,61.9,19.5,50.7,24.5C39.5,29.5,28.4,29.7,20,28.6C11.5,27.4,5.8,25,-2.8,29.8C-11.3,34.6,-22.6,46.7,-28.3,46.2C-34,45.7,-34,32.7,-39.6,22.9C-45.3,13.1,-56.5,6.6,-59.6,-1.8C-62.8,-10.2,-57.8,-20.4,-52.5,-30.7C-47.2,-41,-41.4,-51.4,-32.6,-54.2C-23.8,-57,-11.9,-52.3,1.9,-55.5C15.7,-58.8,31.4,-70.2,40.6,-67.6Z" transform="translate(100 100)" />
</svg>
