<svg viewBox="0 0 200 200" width={{ width }} height={{ height }} xmlns="http://www.w3.org/2000/svg">
	<path fill="currentColor" d="M34.4,-59.1C45.2,-53.3,55.1,-45.4,61.5,-35.2C67.8,-25,70.6,-12.5,66.6,-2.3C62.6,7.9,51.8,15.8,46.2,27.3C40.6,38.8,40.2,53.8,33.3,60.3C26.5,66.8,13.2,64.8,1.1,62.9C-11,61,-22.1,59.2,-30.2,53.4C-38.2,47.6,-43.4,37.8,-44.2,28.2C-45.1,18.7,-41.7,9.3,-43.5,-1C-45.2,-11.4,-52.1,-22.7,-52.7,-34.8C-53.3,-47,-47.7,-59.9,-37.9,-66.3C-28,-72.7,-14,-72.6,-1.1,-70.6C11.8,-68.6,23.5,-64.9,34.4,-59.1Z" transform="translate(100 100)" />
</svg>
